<mxfile host="app.diagrams.net" modified="2023-02-13T07:31:05.780Z" agent="5.0 (Windows NT 10.0; Win64; x64) AppleWebKit/537.36 (KHTML, like Gecko) Chrome/110.0.0.0 Safari/537.36" etag="CNZgI6HfAB-OTMyt2ff2" version="20.8.20" type="github">
  <diagram name="Page-1" id="QjNCluHw2bATl8dojZEt">
    <mxGraphModel dx="1134" dy="586" grid="1" gridSize="10" guides="1" tooltips="1" connect="1" arrows="1" fold="1" page="1" pageScale="1" pageWidth="850" pageHeight="1100" math="0" shadow="0">
      <root>
        <mxCell id="0" />
        <mxCell id="1" parent="0" />
        <mxCell id="xdVd4ikQqdaPmy-Qgpou-16" style="edgeStyle=orthogonalEdgeStyle;rounded=0;orthogonalLoop=1;jettySize=auto;html=1;" parent="1" source="xdVd4ikQqdaPmy-Qgpou-14" target="xdVd4ikQqdaPmy-Qgpou-3" edge="1">
          <mxGeometry relative="1" as="geometry">
            <mxPoint x="270" y="580" as="targetPoint" />
            <Array as="points">
              <mxPoint x="357" y="530" />
            </Array>
          </mxGeometry>
        </mxCell>
        <mxCell id="xdVd4ikQqdaPmy-Qgpou-17" style="edgeStyle=orthogonalEdgeStyle;rounded=0;orthogonalLoop=1;jettySize=auto;html=1;" parent="1" source="xdVd4ikQqdaPmy-Qgpou-2" target="xdVd4ikQqdaPmy-Qgpou-8" edge="1">
          <mxGeometry relative="1" as="geometry">
            <Array as="points">
              <mxPoint x="620" y="454" />
              <mxPoint x="620" y="454" />
            </Array>
          </mxGeometry>
        </mxCell>
        <mxCell id="xdVd4ikQqdaPmy-Qgpou-2" value="BidlandscapeDW" style="aspect=fixed;html=1;points=[];align=center;image;fontSize=14;image=img/lib/azure2/databases/SQL_Database.svg;" parent="1" vertex="1">
          <mxGeometry x="520" y="422" width="48" height="64" as="geometry" />
        </mxCell>
        <mxCell id="xdVd4ikQqdaPmy-Qgpou-21" value="" style="edgeStyle=orthogonalEdgeStyle;rounded=0;orthogonalLoop=1;jettySize=auto;html=1;entryX=-0.045;entryY=0.343;entryDx=0;entryDy=0;entryPerimeter=0;" parent="1" source="xdVd4ikQqdaPmy-Qgpou-3" target="xdVd4ikQqdaPmy-Qgpou-9" edge="1">
          <mxGeometry relative="1" as="geometry" />
        </mxCell>
        <mxCell id="xdVd4ikQqdaPmy-Qgpou-3" value="SSIS" style="aspect=fixed;html=1;points=[];align=center;image;fontSize=12;image=img/lib/azure2/databases/SSIS_Lift_And_Shift_IR.svg;" parent="1" vertex="1">
          <mxGeometry x="330" y="422" width="52.88" height="58" as="geometry" />
        </mxCell>
        <mxCell id="xdVd4ikQqdaPmy-Qgpou-11" value="" style="edgeStyle=orthogonalEdgeStyle;rounded=0;orthogonalLoop=1;jettySize=auto;html=1;fillColor=#dae8fc;strokeColor=#10151C;" parent="1" source="xdVd4ikQqdaPmy-Qgpou-4" target="xdVd4ikQqdaPmy-Qgpou-3" edge="1">
          <mxGeometry relative="1" as="geometry" />
        </mxCell>
        <mxCell id="xdVd4ikQqdaPmy-Qgpou-4" value="Display Adverstising" style="html=1;verticalLabelPosition=bottom;align=center;labelBackgroundColor=#ffffff;verticalAlign=top;strokeWidth=2;strokeColor=#0080F0;shadow=0;dashed=0;shape=mxgraph.ios7.icons.cube;fontSize=11;" parent="1" vertex="1">
          <mxGeometry x="210" y="350" width="50" height="50" as="geometry" />
        </mxCell>
        <mxCell id="xdVd4ikQqdaPmy-Qgpou-5" value="Databricks jobs&amp;nbsp;&lt;br&gt;for forecasting" style="aspect=fixed;html=1;points=[];align=center;image;fontSize=12;image=img/lib/azure2/analytics/Azure_Databricks.svg;verticalAlign=middle;" parent="1" vertex="1">
          <mxGeometry x="516.29" y="558" width="55.41" height="60" as="geometry" />
        </mxCell>
        <mxCell id="xdVd4ikQqdaPmy-Qgpou-8" value="Power BI report" style="shape=image;verticalLabelPosition=bottom;labelBackgroundColor=default;verticalAlign=top;aspect=fixed;imageAspect=0;image=data:image/svg+xml,PHN2ZyB4bWxuczp4bGluaz0iaHR0cDovL3d3dy53My5vcmcvMTk5OS94bGluayIgeG1sbnM9Imh0dHA6Ly93d3cudzMub3JnLzIwMDAvc3ZnIiB2ZXJzaW9uPSIxLjEiIHZpZXdCb3g9IjAgMCA2MzAgNjMwIiBoZWlnaHQ9IjYzMHB4IiB3aWR0aD0iNjMwcHgiPiYjeGE7ICAgICYjeGE7ICAgIDx0aXRsZT5QQkkgTG9nbzwvdGl0bGU+JiN4YTsgICAgPGRlc2M+Q3JlYXRlZCB3aXRoIFNrZXRjaC48L2Rlc2M+JiN4YTsgICAgPGRlZnM+JiN4YTsgICAgICAgIDxsaW5lYXJHcmFkaWVudCBpZD0ibGluZWFyR3JhZGllbnQtMSIgeTI9IjEwMCUiIHgyPSI1MCUiIHkxPSIwJSIgeDE9IjUwJSI+JiN4YTsgICAgICAgICAgICA8c3RvcCBvZmZzZXQ9IjAlIiBzdG9wLWNvbG9yPSIjRUJCQjE0Ii8+JiN4YTsgICAgICAgICAgICA8c3RvcCBvZmZzZXQ9IjEwMCUiIHN0b3AtY29sb3I9IiNCMjU0MDAiLz4mI3hhOyAgICAgICAgPC9saW5lYXJHcmFkaWVudD4mI3hhOyAgICAgICAgPGxpbmVhckdyYWRpZW50IGlkPSJsaW5lYXJHcmFkaWVudC0yIiB5Mj0iMTAwJSIgeDI9IjUwJSIgeTE9IjAlIiB4MT0iNTAlIj4mI3hhOyAgICAgICAgICAgIDxzdG9wIG9mZnNldD0iMCUiIHN0b3AtY29sb3I9IiNGOUU1ODMiLz4mI3hhOyAgICAgICAgICAgIDxzdG9wIG9mZnNldD0iMTAwJSIgc3RvcC1jb2xvcj0iI0RFOTgwMCIvPiYjeGE7ICAgICAgICA8L2xpbmVhckdyYWRpZW50PiYjeGE7ICAgICAgICA8cGF0aCBpZD0icGF0aC0zIiBkPSJNMzQ2LDYwNCBMMzQ2LDYzMCBMMzIwLDYzMCBMMTUzLDYzMCBDMTM4LjY0MDU5Nyw2MzAgMTI3LDYxOC4zNTk0MDMgMTI3LDYwNCBMMTI3LDE4MyBDMTI3LDE2OC42NDA1OTcgMTM4LjY0MDU5NywxNTcgMTUzLDE1NyBMMzIwLDE1NyBDMzM0LjM1OTQwMywxNTcgMzQ2LDE2OC42NDA1OTcgMzQ2LDE4MyBMMzQ2LDYwNCBaIi8+JiN4YTsgICAgICAgIDxmaWx0ZXIgaWQ9ImZpbHRlci00IiBmaWx0ZXJVbml0cz0ib2JqZWN0Qm91bmRpbmdCb3giIGhlaWdodD0iMTE2LjklIiB3aWR0aD0iMTM2LjUlIiB5PSItNi4zJSIgeD0iLTkuMSUiPiYjeGE7ICAgICAgICAgICAgPGZlT2Zmc2V0IHJlc3VsdD0ic2hhZG93T2Zmc2V0T3V0ZXIxIiBpbj0iU291cmNlQWxwaGEiIGR5PSIxMCIgZHg9IjIwIi8+JiN4YTsgICAgICAgICAgICA8ZmVHYXVzc2lhbkJsdXIgcmVzdWx0PSJzaGFkb3dCbHVyT3V0ZXIxIiBpbj0ic2hhZG93T2Zmc2V0T3V0ZXIxIiBzdGREZXZpYXRpb249IjEwIi8+JiN4YTsgICAgICAgICAgICA8ZmVDb2xvck1hdHJpeCBpbj0ic2hhZG93Qmx1ck91dGVyMSIgdHlwZT0ibWF0cml4IiB2YWx1ZXM9IjAgMCAwIDAgMCAgIDAgMCAwIDAgMCAgIDAgMCAwIDAgMCAgMCAwIDAgMC4wNTMwMjExOTc2IDAiLz4mI3hhOyAgICAgICAgPC9maWx0ZXI+JiN4YTsgICAgICAgIDxsaW5lYXJHcmFkaWVudCBpZD0ibGluZWFyR3JhZGllbnQtNSIgeTI9IjEwMCUiIHgyPSI1MCUiIHkxPSIwJSIgeDE9IjUwJSI+JiN4YTsgICAgICAgICAgICA8c3RvcCBvZmZzZXQ9IjAlIiBzdG9wLWNvbG9yPSIjRjlFNjhCIi8+JiN4YTsgICAgICAgICAgICA8c3RvcCBvZmZzZXQ9IjEwMCUiIHN0b3AtY29sb3I9IiNGM0NEMzIiLz4mI3hhOyAgICAgICAgPC9saW5lYXJHcmFkaWVudD4mI3hhOyAgICA8L2RlZnM+JiN4YTsgICAgPGcgZmlsbC1ydWxlPSJldmVub2RkIiBmaWxsPSJub25lIiBzdHJva2Utd2lkdGg9IjEiIHN0cm9rZT0ibm9uZSIgaWQ9IlBCSS1Mb2dvIj4mI3hhOyAgICAgICAgPGcgdHJhbnNmb3JtPSJ0cmFuc2xhdGUoNzcuNTAwMDAwLCAwLjAwMDAwMCkiIGlkPSJHcm91cCI+JiN4YTsgICAgICAgICAgICA8cmVjdCByeD0iMjYiIGhlaWdodD0iNjMwIiB3aWR0aD0iMjE5IiB5PSIwIiB4PSIyNTYiIGZpbGw9InVybCgjbGluZWFyR3JhZGllbnQtMSkiIGlkPSJSZWN0YW5nbGUiLz4mI3hhOyAgICAgICAgICAgIDxnIGlkPSJDb21iaW5lZC1TaGFwZSI+JiN4YTsgICAgICAgICAgICAgICAgPHVzZSB4bGluazpocmVmPSIjcGF0aC0zIiBmaWx0ZXI9InVybCgjZmlsdGVyLTQpIiBmaWxsLW9wYWNpdHk9IjEiIGZpbGw9ImJsYWNrIi8+JiN4YTsgICAgICAgICAgICAgICAgPHVzZSB4bGluazpocmVmPSIjcGF0aC0zIiBmaWxsLXJ1bGU9ImV2ZW5vZGQiIGZpbGw9InVybCgjbGluZWFyR3JhZGllbnQtMikiLz4mI3hhOyAgICAgICAgICAgIDwvZz4mI3hhOyAgICAgICAgICAgIDxwYXRoIGZpbGw9InVybCgjbGluZWFyR3JhZGllbnQtNSkiIGlkPSJDb21iaW5lZC1TaGFwZSIgZD0iTTIxOSw2MDQgTDIxOSw2MzAgTDE5Myw2MzAgTDI2LDYzMCBDMTEuNjQwNTk2NSw2MzAgMS43NTg1MTk3NWUtMTUsNjE4LjM1OTQwMyAwLDYwNCBMMCwzNDEgQy0xLjc1ODUxOTc1ZS0xNSwzMjYuNjQwNTk3IDExLjY0MDU5NjUsMzE1IDI2LDMxNSBMMTkzLDMxNSBDMjA3LjM1OTQwMywzMTUgMjE5LDMyNi42NDA1OTcgMjE5LDM0MSBMMjE5LDYwNCBaIi8+JiN4YTsgICAgICAgIDwvZz4mI3hhOyAgICA8L2c+JiN4YTs8L3N2Zz4=;" parent="1" vertex="1">
          <mxGeometry x="680" y="416" width="60" height="60" as="geometry" />
        </mxCell>
        <mxCell id="xdVd4ikQqdaPmy-Qgpou-13" value="" style="edgeStyle=orthogonalEdgeStyle;rounded=0;orthogonalLoop=1;jettySize=auto;html=1;" parent="1" target="xdVd4ikQqdaPmy-Qgpou-2" edge="1">
          <mxGeometry relative="1" as="geometry">
            <mxPoint x="468" y="454" as="sourcePoint" />
          </mxGeometry>
        </mxCell>
        <mxCell id="xdVd4ikQqdaPmy-Qgpou-9" value="Transformation" style="shape=image;verticalLabelPosition=bottom;labelBackgroundColor=default;verticalAlign=top;aspect=fixed;imageAspect=0;image=data:image/png,iVBORw0KGgoAAAANSUhEUgAAAgAAAAIACAYAAAD0eNT6AAAACXBIWXMAAA7DAAAOwwHHb6hkAAAAGXRFWHRTb2Z0d2FyZQB3d3cuaW5rc2NhcGUub3Jnm+48GgAAIABJREFUeJzt3Xe4HVW9//F3EiAECC1IR3ovUhUQ6agIP/CChSJ2QeSigCIgWFAU7FgvRcErUi6KgopSFIKoCIKIIFUggJQkQEhCQoAk5/fHOpEQTtl7rzWzprxfzzPP9ZIzaz57n332+s7MmrVGoDYbBWwO7AJsCawHrAosDiyRMZeGNwWYAdwP3AP8BbgWmJAxk+plYWBtYE1gdeDVhL//ccCy/f93HDCi/2f9TijXFGAqcC9wO3AdMB6YnuoAI1I1pFrZGPgAcCCwYuYsSus24H+BHwNPZc6i6lgc2BrYFngN4TtgA2CRnKHUteeAy4AzCcWA1LEtgUuBuUCfW6O36cDXgOVQGy0O7AV8C/gb8CL5P5Nuabc/AtshDWMp4HvAbPJ/aN3K3Z4CDsWrfW2wGnAU8HtgFvk/e27Fb3MJVwMWQxrAVsC/yP9Bdcu7XQ2sgJpmBeBo4M94Za/N2z+B9ZHmcyDwPPk/nG7V2B7EL4kmGAXsDfwceIH8nyu3amyTgW2QgMOBOeT/ULpVa5tMGAui+hkLfIzwpEfuz5FbNbepwBao1Q7Czt9t8G0yXgmok1UJg/mmkf+z41b97VF8uqu1Xo+XBd2G3+4jDA5Vda0CfAcH9Ll1v11DuFU0pGF/QLWyHGGw1zK5g6jyliVMAvPT3EH0CssAXwTOA7YHFsobRzW0JjAJ+GvuICrPj8lfebrVa3s7qoqFgP8GniT/58Kt/tsUnAekNd6AjwG5db/9G6d4rYIdCI9y5f48uDVr+yJDGDnUP6pWTsHJXtS9VQhPjCiPpYD/Af4AbJQ5i5rnCIaYJMgCoBleD+yYO4Rq6xhg0dwhWujNwJ3Ah7F4VzGWAt462D9aADTDYbkDqNZWBPbJHaJFxhBG9/8GWDlzFjWf43wabHHgWeLvFT0PnAHsRphe1DOS6lqEsHTrQcBVpLlX+KtSX0F7bUo46899b7iXbSJwMXACsD+wCeEW0tJJ3yFB+BvfAPgC8d/vU/CJv8bai/g/7FuAtcoOrmT2Ap4m7jPwHN4GKNpBpCnWy9zuAz5DKFw8KchjE+AJ4n6PG5eeWqX4OnEfjBtxJakm2IQwDWjMZ2HX0lO3w8KEmfxyd+adbnMJV4TegJ1+VexB3O90//Ijqwzj6f1DMZ1wCU/NcDBxXxLHlh+58ZYGfkf+Tr3T7TfAawp5JxTrRnr/vR6dIa9K8Di9fyi+lCGvijMCuJXePw8/KD9yo60B3EH+Tr2T7WFgv0LeBaXyVXr//X52oAZ9CqDeRhO36MOFqYKoEvqAiyL2Xz1VELElcAP1uPf6C2AzwvLCqq4nI/YdM9B/tACot7ER+z5PODtRs9wcsW/M50kv2Q74PdVfkW0O4dLw/sAzmbMoAxeZqLeYwXuTCWeMapaYs4TFk6Vorx2BX1P9YuoF4BDCY31qKQuAeou5gjMnWQpVyasi9p2RLEU77QFcxiCXWxOYSZondmYB/48wOFEt5i0AqVm2jth3erIU7VNk5/8i8OX+9mPNAd6Fnb/wCoDUJCOAAyP2fyhVkJYpsvMfT1grYCowIUF7RwKXJGhHDeAVAKk5DiaM5u7VPamCtEhRnf+LwMmEqbnvIazqNjqyzf8jrDwoqQHWoPfnQieUnlZF2gyYRtyz4LuUnrre9iDcl0/9TP7dhMcI5xnDS4N2e93uBZZI/QaoVMfR++//tIEa9AqAVH/7ANcRN/L8OcJz6+pMUWf+FwJbAX+b778dCCwX2e7hhHUIpP9wDIBUP4sAKxHman8v4TJxrN8TRodreEV0/n3A5wmX/Rd8PPfgyLYvJPx+JTXIGlTjFsBo4DDCyOInCIuJpL4sOhG4lnAvtOxV694IXEAYJPd8D9nrsL0j2bvVbEVc9p9GuIozkBWA2RFtv4AzPDZF8lsAqrc16P0DMSFRhq2A+yNy9LI9RJhtrWjLAJeX/NpybI/jUsCdKKLzfwp43RDHfF9k++ckeN2qBgsAvcwa9P6BmJDg+K8jTB6To9OaRZh1rShLArdnem1lb59I9J41WRGd/7+BjYY57oUR7c8FNoh83aoOCwC9zBr0/oGYEHnsJQhfYDk7romE5VaLcEHm11bW9ghOATycIjr/+4E1hznuCGBSxDH+GPm6VS0+BaDKOBJYJXOG5YFjCmh3c+CAAtqtoqNxCuChFDHgbwJh4OaDw/zc2sRN7fzjiH3VAhYA6lXMjHMpFZHjAMLZV9NdDPwsd4gKK6Lzv5/w9MaEDn72tRHHmYvL+2oYFgDqxWhgk9wh+q1DGKyX0laJ26ui+4AP5Q5RYUWd+e9OuHXWiU0jjnUbcStDqgUsANSLV1GtM+RxFW+vaiYBbyE8fqZXyn3mP8/6Ece7NmJftYQFgHoxKneABaQ+03kqcXtV8iSwJ/Cv3EEqqqjOf2c6P/OfZ92IY94Ssa9awgJAdfcv4JnEbd6cuL2qeBDYgZdPM6uXVOGy//xWjjju3RH7qiUsAFR3FxTQ5kWER2ea5FfA1rji32CKOvPfkd4euV2YuLEt90Xsq5awAFCdTQS+UUC7txEmYGmCpwiD/fYFns6cpaqK6vx3Icyz0Iul6H2czXPA9B73VYtYAKiuZgFvB6YW1P7hhJkA6+pZ4KuEgWQ/oHlXNFIp8rJ/r50/xE3NbOevjlgAqI4mEAZVXV/gMaYRLt/+qsBjFOFvhMl91gA+SbMHNMaq2mX/+Y2O2NeJndQRlwNWXUwE/kmYuOYcwqp8RXuGsErb7sB7CI9xrURYjje3KYQi5QHgXuAG4BrizjrbpKpn/vPEnJzNTnB8tYAFgMr2EOHstE5+17+pGYrq/Hch7TLbUqG8BSCpTYro/B/Czl81ZAEgqS2K6vx3xs5fNWQBIKkN7PylBVgASGo6O39pABYAkprMzl8ahAWApKay85eGYAEgqYns/KVhWABIaho7f6kDFgCSmsTOX+qQBYCkprDzl7pgASCpCez8pS5ZAEiqOzt/qQcWAJLqzM5f6pEFgKS6svOXIlgASKojO38pkgWApLqx85cSsACQVCd2/lIiFgCS6sLOX0rIAkBSHdj5S4lZAEiqOjt/qQAWAJKqzM5fKogFgKSqsvOXCmQBIKmK7PylglkASKoaO3+pBBYAkqrEzl8qiQWApKqw85dKZAEgqQrs/KWSWQBIys3OX8rAAkBSTnb+UiYWAJJysfOXMrIAkJSDnb+UmQWApLLZ+UsVYAEgqUx2/lJFWABIKoudv1QhFgCSymDnL1WMBYCkotn5SxW0UO4AGtCrgKWBJYf5uZVLyJLaIsBWw/xMH/AMMBmYXngiFcnOX6ooC4BqeDXwNmBPQue4TN44hVoJuLmLn38Y+CtwKfBLYFoRoVQIO39JGsSGwAXAHMJZb5nbhIjcq2fI20fo/L8ELBuRXeXYA5hJ+s/sGuW9hKzWpff36d4MeVW84+j9M3HaQA06BiCPhYHPAH8HDsTfQ6fGAicAdwL7Zc6iwXnmL9WAHU/5liBcyj6ZcD9c3VsBuAT4Fn6Gq8bOX6oJxwCUa0lgPLBF5hxN8VFgUeCw3EEE2PlLteLZU3kWAn6KnX9qhwKfyh1Cdv5S3VgAlOeTwBtzh2ioLwBvyB2ixez8pRqyACjHuoRBf1XyQqZ9izASOIswuFLlsvOXasoCoByfBkbnDrGAxyL2nQzMThUkkQ2Ag3OHaBk7f6nGLACKtxpwUO4QA/hDxL6zgRtSBUnok7kDtMjupO/8HwB2xM5fGsjciH37BvqPFgDFewcwKneIBcwGzots49wUQRLbEAdZlmFHwsyMqc/8dyPM/CjplSZH7DsxWQp1ZTx5Zs0bavtGgtc1ijBFb+7XsuBWtbEWTbM76Wf4u58wHbZe4kyAWtBW9P6Z2C1D3tYbSZi+NnenOP92BekGy61GuFyb+zXNv/0y0WvTK9n5l8cCQAsaAfyL7j8PT+AA6SxeTf4Ocd42izAfdOrJn5Yn3AvO/frmbfclfn0K7PzLZQGggRxE95+HwwdrzJkAixWzaM1cwloBfRFtzCZUf38GLqKY+6uTgH2BbYC3A5sQioIYixNG9ffChYLS251wZSX1gL9d8J6/1I0LCJfz39/hz/8cOKO4OBrKa+m9in+M6j06WJZN6f19ezZD3ibzzD8PrwBoMKOArxNOEof6HJyJ681ktR5xX5THlx+5En5D7+/ZIxnyNpWdfz4WABrOVsD5wBRe+t1PAy4Gts+YS/3GAnPo/Q95GrBS6anz2ou4DqaK8xPUkZ1/XhYA6sYywLjcIfRKdxP3pXlu+ZGzWYT49+t7padunt2w88/NAkBqgDOI++KcQxhg1wbHEN/RvLP01M2yHTCdtJ3/BGDNEl9DE1gASA2wC/FfoDcQngFtsuWBZ4h7n2YQniBQbzYHnsbOvwosAKQGGAncSfwXadMXujmL+PfIx116tyHwJGk7fy/7984CQGqIXiZvWHB7hOae3W5BmLMg5v15AVij5NxNsRxhAqWUnf8EPPOPYQEgNcRI4Cbiv1Q/X3bwkown/r1Jsb5BGy1KmCjKzr9aLACkBtme4SduGG57juad5b6T+A7nKZwBsBcjCDNEpuz8veyfhgWA1DAXEv8Fe3HpqYszBniQ+Pfkw2UHb4iPk7bzn4Bn/qlYAEgNsyphqtrYL9qdyg5ekM8Q/17cgWta9GJ7wrgJO/9qsgCQGuhzxH/Z3kqYD7rOViFNMbRH2cEbYAXgcdJ1/l72T88CQGqgMYSzpdgv3UNLzp3a+cS/Bz8tPXUz/BLP/KvOAkBqqAOJ/+KdBCxddvBEtiN+QOQsYJ2ygzfAoaTr/B/CM/+iWABIDXYd8V/AXy89dbyRwI3Ev/ZTyg7eAGuTbprfiYTVLlUMCwCpwbYgbqXAPsIgrvXLDh7pfcR3Pv8Glig7eANcTZrO/xlgy5Kzt40FgNRwPyD+y/jy0lP3bizwGPGv+ZCygzfAe0jT+T8P7Fhy9jbahN5/R3dmyCupSykWwOkD9iw7eI9OI/61tmFhpNReBUwmTQHwoZKzt9X+9P47ujFDXkk9OJb4L+X7gEXKDt6ltQgD92Je51zgdWUHb4AzSdP5f7fs4C32C3r/Pf0mQ15JPVgEuIf4L+ejyw7epUuJf40/Kjt0A2xK/EJLfcAfgIVLzt5W/0XcUzKnlx9ZUq/2If4LeiqwYtnBO7Qr8a9vOrBy2cEb4Cri3/ungdXKDt5Co4AjiL9S9v6yg6uenEK1Gn4JXAG8OaKNJQmzDFZtXvxRpDkjOZUwgFCdexNpZko8jLAc9XAWIkwKtBqwEmGMyyLAaGCxBDma7FXA7qSZV+HaBG2o+pYgDIjek/B3N5IwMdeVwHnAlGzJ1LUNiZ+bfQ6wVdnBh/HfxJ+BPkBYtlbd+Qvx7/0PB2l7JOFRwCOBnwB3kXZtAbfeNp8AaIf9CXNxDPY5eAp4d7Z06sm3if8CuJ7qjJJfhjSjz/crO3gD7En8+/4YsNR8bS5K+F2cT5iJMndn5/bK7UTUdIfT+RiR4zNlVA9SdZhvKzv4IL5D/Gu5pvTUzZBitsV39re1IeFJgqkJ2nQrbnuOcOtFzbUd8CKdfybmAm/MklQ9OYL4L4KHyX/PdSPiLwnPBjYrO3gD7Ez8Z+gKwj3py4lft8GtnO17qOmup/vPxT+ozlVhDWMUcBvxXwYnlR18AVcQ/xq+X3rqZkjxyOWTCdpwK2+bQljmWc21Jr1/PrbIkFc9SvHY3AzyrdS2b4cZh9qeBpYrO3gDrEP8GhNu9dsOQ013EL1/Po4YqMGRhUdWL64hzAQWYzHgiwmydGsR4CsJ2jmZcBaq7hyBf9dtcwlhjIaaLWael6rOEaNBrEUY1BNzVjAX2KHk3MdFZu4jPMrkrHPdG42X7tu23UqYA0TNF/PdetpADXqmUF0PED+Bzoj+Nsr6Pa8AnJCgnWMII13VnbcC43KHUGnuITzuOS13ENWTBUC1fZH42e+2orzlc0/l5c+N9+LXhAGE6t4HcgdQaW4kXN17IncQScV5L/GXCZ+g+MuEWxA/+Ox5YP2CczbViqRZ9Met+tuPgTGobbwF0EL/C9wU2cYKFDsj1AjgW8R/nr5NuKyp7r2N8AipmutfhEv+7yaMD5LUAtsSPxnL88C6BeWLeTxl3jaR+NsHbTae/GembsVs9wEfJDxho/ZKfgVA9fET4r9ILikg1xjCClSx2T5YQLa2WAEv/zdtu4cws98bcBY3BckLAJcDro/jCKO8F49oYz/CvNBXJUkUHA+sHtnGrcC5CbK01Zup1uX/h4F7gYeA6YRJqaZnTVR9swij+R8grKw4KW8cSVXzaeLPLP5JusJvVcKXe2ymHRPlaasLyHu2+nfgy4RCZGzBr1VqK28BtNyiwIPEf2F/JFGeixJkuShRlrYaSZoVJLvdJhFmfNyk+JcoCQsAAW8n/sv7KeInjNme+IGJM4E1InO03daU2/H/GziKuFtRkrrnY4Dip4QR3zGWBT4Tsf9IwmN/sYOTvkIYQKjelTXV84uExzQ3IMwuOaOk40qS5vMa4kd9v0jvl28/FHnsPuARPItMIcVtmOG2vxI6fkn5eAtA/3Em8V/sv+vhuGOBxxMc+8Aejq1XeoRiO/8zCYsMScrLAkD/8SpgCvFf8P+vy+N+LcEx/4zPNqewEsV1/C8C7yvvpUgahgWAXuYY4r/o/0XnZ3hrE55XjjneHOC1Pb9ize+NFNP5zwT2KfF1SBqegwD1Mt8hfu78tYGPdvizpxN/OfhHxK9toGCzAtqcA7wL+GUBbUuSEtqD+DO+aYTLyUPZvaTjqHM/Iu2Z/1zgPWW+AEkd8wqAXuFq4LeRbYwFPj/Evy8EfDPyGACnEAYQKo3UI/O/Tlh9UpJUE+sQVvuLvTe/zSDtHxXZdh9wP44mT+0J0p3934irzUlV5iBADeobxHcCf+KVo/OXBZ5M0Pa+yV9xuy1G/EyM87aZwFrlxpfUJQsADWpJ0jyff8AC7X4/QZu/T/9yW29D0p39f7rk7JK6ZwGgIR1GfGcw/wx9GxOeB49pbzawaWGvuL12JU3n760ZqR4cBKghnQ3cEtnGqsAn+v/3N4lfOvj7wO2RbeiVlkvUzqmE8SOSpJrbmfizwhmEEeGx7aRYdVADO5w0V3sc+CfVg1cANKzxwM8i21iMMMtgrM8QigClt2yCNs4EXkjQjqQasgBopmMII7tzuhM4K3OGJotdSbEPOD9FEEn1ZAHQTI8QHgvM6RjCAEIVI/bS/fXAgymCSKonC4DmOhV4ONOxLwWuzHTstogtAK5IkkJSbVkANNdM4MQMx30B+GSG47ZNbAFwTZIUkmrLAqDZzgf+WPIxvwncV/Ix22jBGRu7MZP4x0Ul1ZwFQLP1AR8nTBlbhieAL5V0LPXuXsIETZJazAKg+W4iTMZThiMJS/6q2u7JHUBSfhYA7XA84ayvSOcTP/+AyjEhdwBJ+VkAtMMMYE9gUkHt3wQcWlDbSs+rNJIsAFrkAeBNhBUDU/ojobjIPfGQOjc9dwBJ+VkAtMvfgW2BvyRq7xxgD+DpRO2pHLNyB5CUnwVA+zwM7EBY8a/XjvseYG/gA9iZSFItWQC00xzCan9rEAqBv3Wwz4vAb4EDgI2By4sKJ0kqXuxa76q36YRC4OvAasDWwEaEJXwXB54hPNv/D+BmYGqemJKk1CwANM8j/dsvcgeRJBXPWwCSJLWQBYAkSS1kASBJUgtZAEiS1EIWAJIktZAFgCRJLWQBIElSCzkPgIoyAlh9vm0NYBVgOcJEQ+OAxYClCIXoCGDpHEFb6NvAqcCThEWi7gCu69+ezZhLUoksAJTCwsAWwOuAzYBNCdMFL5EzlAa1aP82DlifsJrjscBzwGXA2cA12dJJKoUFgHqxMLA98EZgR2ArYEzWREphDGGthwOAG4BPEpZ7ltRAFgDq1DjgrcA+wK54dt902wF/AM4FjiKsGyGpQSwANJQlgXcAbyd0+n5e2mUE8H7C8tH7Af/MG0dSSn6ha0EjgDcAHwDeRhiop3ZbD7iecPXHWwJSQ/gYoOYZDbybsPTvdf3/285f8ywDXEkY+yGpAbwCoHHAx4DDCY/oSYNZjPCUwNbAQ5mzSIpkAdBeywLHAB8FxmbOovpYDriI8PTHi5mzSIrgLYD2WQz4NPAgcCJ2/uretsDHc4eQFMcrAO0xAjgY+BKwWuYsqr+TgJ8A/45oYzRwILAXYUKixRPkklKYBtxNuOX1M2B23jhS7zYjTOzS5+aWcPsOvdsFmFCB1+DmNtx2N7AN+R1H76/htIEa9BZAs40hnPHfTLhsK6X0AcJYkm79F+GJgtXTxpEKsT7hyahdcwdJzQKgubYFbgNOIEzdK6U2Bnhnl/usA5yHn0nVyxjgYmCF3EFSsgBonoWAzxEmblk3bxS1wDu6/Pkv4L1+1dM4wtiXxnAQYLOsCVxIWJWvbqYT5p7/O+Ge272E5WqnATMIK9UpjcWAtQhTPB9N3JMg2/W3N7ODn12CsJ6EVFcHEf5mGjEo0AKgOd4MnE9v92RzeRy4gDDK9mYa8kdVAzOBO/q3C4DfAav22NZoYEs6myJ4K8IyxFJdLQtsQPjbqT1vAdTfCMJz/ZdTn87/emBvwuOInwD+gp1/LvcQLuP3RbSxfoc/t3zEMaSqaMw4AAuAehsD/B/weerxu7yBMIPcjoSCZU7eOOp3A+EqQK9e3eHPPRNxDKkqns4dIJU6dBoa2KuA3xPu41bdU8AHgdcTzv5VPddF7Ltkhz93B3FXGqTcZgH35Q6RigVAPa1DuGy+Xe4gHRhPmIjoh/jlX2WTI/btdNXIx3E5YdXbb4Fnc4dIxQKgfjYmjJZfK3eQDnwJ2B14LHcQVcZnsBBUPc0mPGLdGBYA9bIFcC2wUu4gw5hDWF74RLzPr5cbD3wxdwipB58A/pE7REoWAPWxDXAN4d5/EWYlamcO4VnZMxK1p+b5NGGGSp/8UB08Tzih+VbuIKlZANTDlsAVwNIFtD0XOAv43wRt9RH+UC5O0Jaa7TRgE+AHwKTMWaSBPAp8j/CYayNPaJwIqPq2Aa6imM7/VuAw4C7gkQTtnQycnaAdtcM9wIf6t7EUd3VL6tZEwgykjWYBUG1Fnfn3EZZyPRZ4AfhYgmNcA5wS2Ybaa3r/JqkkFgDVVdSZ/6PAIYTBhACjgI9GtvkEcCAO+JOk2rAAqKaiOv8rgYMJE/PMsxfxjxQejfdxJalWHARYPUVd9j8L+H+8vPOHUBDEuI4wHbEkqUa8AlAtRZz5z3uE5dwB/m1xwqI8veojjB9wYhdJqhkLgOoo4sx/BrAfoagYyG50Po3rQC4HbovYX5KUiQVANRRx5j8FeAthzYDBvDHyGKdF7i9JysQCIL8iOv8ngDcx/LSVu0cc427gTxH7S5IysgDIq4jL/hMJHfs/h/m5ZYH1Io5zXsS+kqTMLADyKerMfxfC2flwXguMiDjWTyP2lSRl5mOAeRR55t9J5w+wWcSxHgHui9hfkpSZBUD5tgSuJlyCT2UiYUT/cJf957d+xPF+H7GvJKkCvAVQrtyX/ee3TsQxb4nYV5JUAV4BKE8VLvvPb+WI4/ZyPElShXgFoBxVOvOfZ/mIY98bsa8kqQK8AlC8ojr/Xem98x8FLBlx/MkR+0qSKsACoFhFXva/K6KNRSP2nQ08F7G/JKkCLACKsw1htHzK0f7zLvt3M9p/IKMj9n028tiSpAqwAChGEWf+k4g/858n5vc+O8HxJUmZWQCkV8Rz/pMI9/xjz/wlSQIsAFKz85ck1YIFQDp2/pKk2nAegDTs/KXeLQ2sBqyQO4gE9BGetnoImJ45S6EsAOLZ+Uu92QM4HtiJMDeFVCUvEJ7k+iLwp8xZCuEtgDh2/lL3FgbOIkyQtSt2/qqmRYA9gT8CX6aB/aVXAHpn5y/15nvAh3KHkLrwSWBE//9tjMZVNCWx85d6sz92/qqnY4Edc4dIyQKge3b+Uu9Oyh1AivDp3AFSsgDojp2/1Ls1gc1zh5Ai7AwskztEKhYAnbPzl+JsmDuAFGkhYN3cIVKxAOiMnb8Ub7HcAaQEFs8dIBULgOHZ+UtpPJ47gJTAY7kDpGIBMDQ7fymdm2n4zGpqvMeAe3OHSMUCYHB2/lJazwPn5w4hRTiHMFVwI1gADMzOXyrGyYS/BaluJgBfzR0iJQuAV7Lzl4rzBLAfMDV3EKkLk4F9gWm5g6RkAfByW2DnLxXtT8B2NHSBFTXO1cA2wD9yB0nNtQBesgXwO+z8pTLcBexAmFp1b2B9fExQ1TGd8Bm9DLgpc5bCWAAEdv5SHn/o3ySVzFsAdv6SpBZqewFg5y9JaqU2FwB2/pKk1mprAWDnL0lqtTYWAHb+kqTWa1sBYOcvSRLtKgDs/CVJ6teWAsDOX5Kk+bShALDzlyRpAU0vAOz8JUkaQJMLADt/SZIG0dQCwM5fkqQhNLEAsPOXJGkYTSsA7PwlSepAkwoAO39JkjrUlALAzl+SpC40oQCw85ckqUt1LwDs/CVJ6kGdC4CiOv/dsPOXJDVcXQuAIjv/OxK2KUlSJdWxALDzlyQpUt0KADt/SZISWCh3gC7Y+UvNsxrwFmA9YInMWaR5pgL3AJcDT2TOUpi6FAB2/lKzLA98DTiY+l2JVHvMBn4AHE8oChqlDn94dv5Ss6wP3AQcQj2+g9ReCwEfBv5CuFrVKFX/47Pzl5plSeBXwOq5g0hd2AC4DBidO0hKVS4A7Pyl5jkOWDd3CKkHWwAfyR0ipaoWAHb+UvOMAg7NHUKKcETuAClVsQCw85eaaUtgudwhpAhrA2vlDpFK1QoAO3+puRo3iEqt1JjPcZUKADt/qdleyB1ASqAxn+OqFAB2/lLz3Z87gBSpD3ggd4hUqlAA2PlL7XAXFgGqt5uAiblDpJK7ALDzl9rlK7kDSBFOyx0gpZwFgJ2/1D7LW/eOAAAZGklEQVQ/BK7MHULqwUXApblDpJSrALDzl9ppDvBO4KrcQaQu/Ax4f+4QqeUoALYCfk/azn8isAt2/lIdTCWsAHg4MCFvFGlI9wLvBt4BPJc5S3Jlrwa4KeHy3zIJ25wE7A7cmbBNScWaA5zRv72GMMGKkwSpKiYROv9G9ytlFgDrEjr/cQnb9LK/VH+39W+SSlRWAfBq4BpgpYRtTgR2peEVmiRJRShjDMBYwvKfqyZs08v+kiRFKLoAGAVcAGyWsE0v+0uSFKnoWwDfBfZO2J6X/SVJSqDIKwCHAB9O2J6X/SVJSqSoAmBz4MyE7XnZX5KkhIq4BbAsYbrEMYna87K/JEmJFXEF4PvA6ona8rK/JEkFSH0F4BDCPN8pPEk48/9novYkSVK/lFcAVge+k6itacCe2PlLklSIlAXAd4GlErTzHLAvcHOCtiRJ0gBSFQAHk+Z5/7nAAcD4BG1pcKMj9p2TLIUkKZsUBcA44JsJ2gE4EfhlorY0uHUj9p2eLIUkKZsUBcAXgVclaOd84MsJ2tHwDo7Y98lkKSRJ2cQWAJsCH0yQ4xbgQ0BfgrY0tB2B90bsf1+iHJKkjGILgK8TFvyJ8SxwIGHwn4ozgvA+/5q4xz9vTxNHkpRTTEfwZmCPBBmOpPOzytX6t+UJtx3GAgsnyNBko4CVCXMqbJigvWsTtCFJyiymAPh8guP/H/CjQf5tPeD1wLbAVsD6wBIJjqnePQHcmjuEJClerwXA3sA2kceeDBwx3/8/CtgF2B94E7BmZPtK70J8DFCSGqGXAmAE8LkEx/4E8BThkv6RwLuBFRK0q2LMBc7OHUKSlEYvBcBuhEvyMa4hLPBzAfA2vI9fB5cAd+UOIUlKo5cC4KgEx10X+GuCdlSOWcCncoeQJKXT7WOA6wNvSXDc1RK0ofJ8CfhX7hCSpHS6LQCOJIwBUHtcRygAJEkN0k0BMIa4KWRVPw8QFmdy5L8kNUw3BcB+wNJFBVHlPEaY7OmJ3EEkSel1UwB8oLAUqpq7ge1x3n9JaqxOC4BVgJ0LzKHq+AWwHfBQ7iCSpOJ0WgDsj4P/mu4xwmJB+wHPZM4iSSpYp/MAvK3QFMrpCcKqjmcQVmaUJLVAJwXASoRFedQcjwNXAz8FrgRezBtHklS2TgqAN9H9fAFFehq4B3iQcMY6lTBPvQbWR7ikPw2YQHjvHsgZSJKUX6cFQE4PAFcQ1qG/HpiYN44kSfU3XAEwEti9jCALeBY4H/gxcAPhLFaSJCUyXAGwObBcGUH6PQ18B/h2//+WJEkFGK4A2L6UFOEe/lmEFeemlHRMSZJaa7gCYLsSMtwLHALcVMKxJEmqo1dF7DtzoP843Oj+bSMO2IkLgK2x85ckaSi7ROw7baD/OFQBMA5YK+KAQ+kDjiesLji9oGNIktQEewNbRuw/4NTuQ90C2DTiYEOZAxwKnFNQ+5IkNcWWwI8i27h7oP84VAGwSeQBB9IHfAg4t4C2JUlqgiWADYADgCOARSPamjd53iuUXQAcj52/1DSH9m+SqucaBpktd6gxAOslDnER8JXEbUqSpMFdPNg/DFUArJ4wwN2ES/+SJKkcU4BfD/aPgxUAI4FVEwWYA7wLl5qVJKlM3waeG+wfBysAVgIWSRTgf4BbErUlSZKG9xTwraF+YLACYIVEASYDJyVqS5IkdeYEhplaf7ACYFyiAKcDUxO1JUmShvdb4IfD/VCRBcBU4HsJ2pEkSZ15CHgPgzz6N78iC4Af4dm/JElleQrYk3D7fViDFQCLJQhyXoI2JEnS8B4HdgPu6nSHwQqA2CcA7sSR/5IkleFvwPbAbd3sVFQBcEXk/pIkaWizgW8QOv8J3e482FoAsQXANZH7S5KkwV0FfJIuz/rnN1gBMKLXBgkr/l0fsb8kSXqlqcAlwBnAX2MbG2o1wF79G5hWQLuSJLXBDGA6Ly3lewdwLXADMCvVQYooAAZcd1hSY50FHJY7hKTuDLUaYK8eLKBNSZKUUBEFgJf/JUmquCIKAJf9lSSp4oooAAZde1iSJFVDEQWAJEmqOAsASZJayAJAkqQWKmIeAEmSejEW2ArYHFgRWIYwruwZwip3NwP3Z0vXMBYAkqScRgD7AO8H3gSMHubn7wYuAr5Ph+vea2DeApAk5bIjcCtwKaEIGK7zB9gA+Bxh0rlTgEWLCtd0FgCSpLItBHyTML/9a3psY3HgROAWYONEuVrFAkCSVKbFgcuAo0jTB20E/BHYOUFbrWIBIEkqyyjgfOAtidtdGrgc2DZxu41mASBJKstXgH0Lansx4BfA8gW13zgWAJKkMmxPuOxfpBUJy1OrAxYAkqSiLQz8gHL6nH0JTxRoGBYAkqSiHQFsWOLxvklnjxS2mgWAJKlIywInlXzMtYCPlXzM2rEAkCQV6YvAuAzHPQlYKcNxa8MCQJJUlI2BD2Y69ljCTIEahAWAJKko3yTvmjPvBV6b8fiVZgEgSSrC/sAemTOMBE4nLDikBVgASJJSWxT4aoJ2zgImRbaxHXBAgiyNYwEgSUrt48CakW3cSXh88MT4OHyVsAaB5mMBIElKaUXgkwnaOQaYDZwD3BzZ1irAsdGJGibn4IyijSLMCPVWYB1ghbxxpP+YDDxAWBHt58CLeeNISX0FWDKyjUuBK/v/91zCM/1/JO5e/ieBHwETYoK1wWlAX4/bcRnyLmgL4A56fw1ubmVt9xDmSM/tUHp/DWdmyKtq2gqYQ9zfxPPAugO0fVFku339bahfE28B7ARcT3j+VKq69YBrSL88qlS2EcD3iO9XvgHcN8B//wQwI7LtdxL6CNG8AmAF4BIc7KF6GQ1cCKyeO4gU4RDgdZFtTAROHeTf/g18LbJ9CI8FjkrQTu01rQA4iTxTTkqxlgQ+nzuE1KMlGLzj7sbxwLQh/v3LwEORx9gceF9kG43QpAJgIeDg3CGkCG/Hq1eqpxOAlSPb+Bvw42F+5jngU5HHgbA+wVIJ2qm1JhUAGwHL5A4hRRhDGMAq1cmahEf2YvQBRxFG/A/nQsI4rxjLU/4KhZXTpAJg+dwBpARWzB1A6tLXCDP/xbiAzjv1PsJjgZ0UC0P5KLB+ZBu11qQCYGruAFICU3IHkLqwC7BfZBu9XNa/lfBMf4xFSDOosLaaVADcC7yQO4QUYS5h+lOpDkYRVvuLdSrwcA/7nUD8id/ewJ6RbdRWkwqAqcDVuUNIEf4EPJ47hNShQ4HXRLbxCPD1HvedBHwp8vgQ5h1YOEE7tdOkAgDgc8TfF5Jy6AM+kzuE1KFlSPPY6ieAmRH7n064+htjA+AjkW3UUtMKgJtJs3KUVLZTgfG5Q0gd+iywXGQbfwJ+GtnGC6RZeCjF66mdphUAENYxOAYXWFE9zAE+jY8kqT5SnDHPJTz21xcfh8t4aeGgXqW6olErTSwAIAxM2QT4IfBk5izSQKYA5xHuoZ5Cmi9CqQwp7pn/gPglfud3NPEnfSnGNNRKk5cDvhf4YP+2HPHLU0qpPEsYwCTVTYpR89MIl9xTugs4Azgyoo15TzXsmiRRDTS5AJjfk3glQJJipHpu/mTgiQTtLOizwIHE3cvfBdifsKhc4zX1FoAkKa0jiZ8571+EJYOLMIVQXMT6KvEzG9aCBYAkaTip5s4/Cng+QTuD+R/g9sg2UqxtUAsWAJKk4ZwCLB3Zxu+AyxNkGcocQpERK8XqhpVnASBJGsrmwPsj25hNmo65E9cAl0a2sQRhbo5GswCQJA3ldMII+RjfAf6ZIEunPg7MimzjEGCHBFkqywJAkjSYdwI7RbbxNOEWQpkeAL4V2cYIQvHT2H6ysS9MkhRlDGFm1VgnEoqAsn2R+MW1tgLelSBLJVkASJIGciywRmQb/yTM+pfDdNKsDfMVGjqRnAWAJGlBq5BmkZ2jCQMAc/lf4KbINlYgzXtRORYAkqQFfQVYPLKNnwFXJ8gSI9WiQ58A1omPUy0WAJKk+W1HmFI3xvOEZ+mr4Abggsg2RpNmPESlWABIkuYZSRj5PiKyna8Rpv2tiuOAGZFt7A/skSBLZVgASJLmeQ/w2sg2HqV6Z8uPEm5rxPomDVpEzwJAkgQwlvDoXKwTCEteV81XgQmRbWwMfCg+SjVYAEiSIDwyt1JkG38BfpIgSxGeI9wKiHUKMC5BO9lZAEiS1iJ+rv4+0oy4L9LFwHWRbSxLmpURs7MAkCR9gzDSPcaPgRsTZCnaUYRVA2P8N7BJgixZWQBIUrvtCuwb2cazwKcSZCnD34FzIttYiDAgsNYsACSpvUYRHvuLdSrwWIJ2ynIS8ExkG7sDeyfIko0FgCS11+HAppFtPEi4hVAnk0izQuHpxN86ycYCQJLaaRngswna+QQwK0E7Zfs2cE9kG2sDRybIkkVjJjQYwmhgdcIzrlIVzCA8j1zHL001x+eB5SLbuBb4eYIsObwIfBz4dWQ7nyE8+vhEdKKKOI3wKEcvW4rnLFPYBvgFMJPeX4ubW1HbLOByYAeq4VB6fy1nZsirOBsCLxD3GZ4NbFZ28AL8hvi/57NKT51AE28BjCTc27kReCswJm8caUCjgbcA1xPuI7bhapyq45vAwpFtnAX8I0GW3I4hXA2I8QFg6wRZStXEAuBLhBmtYhezkMryMeBbuUOoNfYF3hTZxhTCpe8muBv4XmQbIwl/w7Xqd5pWAOxIdW5BSN34CLBX7hBqvEVIsyjOycCTCdqpipOByZFtbA+8I0GW0jStAGhKRap2+mzuAGq8o4H1Itu4C/h+gixV8gxp+o+vAYsnaKcUTSoAlgV2yh1CirA1sFruEGqspQkr9cVKcc+8is4GbotsY1XC1bxaaFIBsB4OpFK9jSCMzpaKcBSwVGQblwNXJMhSRXOIXxAJwqOFiyVop3BNKgBqc9lFGoLzVagII4EPRrbxAuHsv8nGA5dEtrEC4Qm0ymtSAdCYSRjUanWaT131sQOwSmQb3wHuTZCl6o4lfpKud6YIUrQmFQB3YRGgensWuDV3CDXSLpH7TwK+kCJIDTwIfD2yjZ2owSOBTSoA5gLn5Q4hRfgJTg+sYmwRuf9JwNQUQWriNODRiP2XAtZKlKUwTSoAIP6XJuXyJGFudqkIq0bseytwTqogNfEs8U9MxN5yKVzTCoCnCYMvpuQOInVhOrA/8HjuIGqsmNH/JxBGyLfNT4DbI/ZfJlWQojTxsbmbgdcRKtaqLLQiDeavhHnEY75opOE8H7Hv94k/qXoGuJOwQNu1kW0NZSXgAMKssCsR38etH7FvzHteiiYWAAD3AW8AdibMe70usGLOQNJ8JgH3A5cBvyesJiYV6emIfVPdy94NOJKwANZ7gQcStQthwN2JhKsVVXkG/6ncAYbT1AJgnvH9myS12V2Ek6IqeANhtdZdgDsStDeCcLn+oARtpTIXuCd3iOE0bQyAJOmVbs4dYAHLEa6ApZjA7Tiq1flDmC9hWu4Qw7EAkKTmu5xwVlolaxE/9e7yhEv/VfPL3AE6YQEgSc33GNW8HfreyP3fBiyRIEdqF+YO0AkLAElqh6/kDjCAdYCVI/avyriG+V0F/D13iE5YAEhSO1wJ/CF3iAHEFABVe7prLvDZ3CE6ZQEgSe3xPmBG7hALWCTTvkU4HfhL7hCdsgCQpPZ4gPAsvtK7kbBmQm1YAEhSu5wLfC53iIa5D9gHeC53kG5YAEhS+5wMfIzqPRpYRzcRpp2flDtItywAJKmdvg3sDjyYO0hNzQG+BuxEDTt/sACQpDa7FtgUOB6YnDlLXfQBlwLbAMcCs/LG6Z0FgCS12wzgy8Crgf8CziPc03aRqpc8QyiWjgfWJrxPt2ZNlEDTFwOSJHVmFuHM9tL+/38xwpz9yzB8X3EOsFlx0QrxfuAfw/zMdMJSyE/SwILIAkCSNJCZwMP923CeLThLEe4BbskdIidvAUiS1EIWAJIktZAFgCRJLWQBIElSC1kASJLUQhYAkiS1kAWAJEktZAEgSVILNX0ioHHAW4B1gOWpXsEzE3gUuA64mfJnmloKeDOwIeH9GVXy8dtqImFd9t9Q00VEJNVfUwuAscApwIeBRTJn6dQ/gKOBa0o41qLAZwjLgS5WwvE0sNnAD4FPAU9nziKpZap2RpzCysCfgY9Sn84fwjzaVxFyF2lZYDxwAnb+uS0EHAbcCKyVOYuklmlaATAauAzYJHeQHo0CTgf2Laj9kcDFwOsKal+9WQf4FbB47iCS2qNpBcBHgK1zh4g0AvgexZydHwzsVkC7ircR8PHcISS1R9MKgP/OHSCRVSjmKkBT3p+mOgIHYkoqSZMKgLVp1n3UNyZub2lgm8RtKq3lqd+a6pJqqkkFwGq5AyT26sTtrUq4vaBqS/17l6QBNakAmJ07QGIvJm6vae9PU6X+vUvSgJpUADyYO0BiDyRu7xHsXOog9e9dkgbUpALgUeDW3CESujxxezMIz/+ruu4H7s4dQlI7NKkAAPhq7gCJ3A78toB2v1RAm0rny7kDSGqPphUAFxEmAqqzWcAHgbkFtD0eOKeAdhXvd8C5uUNIao+mFQB9wLtIf/m8LNOB/YGbCjzG4cAFBbav7l0LvAMHakoqUdMKAIBngX0Ic6w/nDlLp14E/g/YgrBCXJFeIBRJ7wLuK/hYGtrjhAWZ3ghMyZxFUss0dTXAucBZwNnA5oTlbpfImmhgcwidwA2U2wH0Aef3b5sCGwNLlnj8tptJGOz3N4q51SNJw2pqATBPH+HJgCY9HZDa7f2bJKlFmngLQJIkDcMCQJKkFrIAkCSphSwAJElqIQsASZJayAJAkqQWsgCQJKmFLAAkSWohCwBJklrIAkCSpBayAJAkqYWavhaAJM2zMrArsD2wPrA2YRGspYERGXNJWVgASGqysYSlr98NbJs5i1QpFgCSmmhJ4OPAkcAymbNIlWQBIKlpDgC+AayUO4hUZRYAkppiCeAM4ODcQaQ6sACQ1ASrAlcAG+cOItWFBYCkulsH+B2weu4gUp04D4CkOlsJuBI7/zqbnTtAW1kASKqr0cCvgLVyB1GUibkDtJUFgKS6+hqwVe4QijIReCR3iLayAJBURzsBR+QOoWgXAXNzh2grCwBJdbMQ8H2cvrfungFOzR2izSwAJNXNQcBGuUMoyouE36P3/zOyAJBUJyOA43OHUJTHgDcCv80dpO2cB0BSnewIbJg7hLo2GbgL+DlwNjAzbxyBBYCkejkkUTt/Bn4IXEs4I30+UbtSbVgASKqLEcBekW3MBA4DfhIfR6o3CwBJdbEhsGLE/s8DbwauTxNHqjcHAUqqi9hJfz6Fnb/0HxYAkupi/Yh9HwG+myqI1AQWAJLqImbBn0uAF1IFkZrAAkBSXYyN2PfmZCmkhrAAkFQXYyL2fTpZClVJzED21q9BYAEgqS6ei9h3XLIUqpKYp0KeTZaipiwAJNXFtIh9t06WQlWxIrBqxP4xn6dGGKwAiKm0l43YV1Iey0XsG/N90Y2HI/bdHxidKogq4Z30fhL7IvB4wiy1NNibNz2izZ0i9pWUR8zfbVlnUvdE7LsqcGSqIMpuaeCEiP0fIBQBGsDbgL6IbffyI0vq0WsJA6J6/Xv/QEk5N4zI2EeYCdATlPpbGLiCuM+CU0EPYVPi3twngE1KTy2pW+sAE4j7e9+hpKwjCAv3xGSdCbynvy3VzyrAeOI+A33A+0rOXSujgGeIe4OfBb4AbAQsUm58SUNYGFgP+DTxf+ezgMVKzH52ZN552w3AB4G1cGxA1S1PWAb6dGAG8b/72cBKpb6CihqqCr4M2KesIJJqaTywS4nH26n/mFKvriQsCtV6Q42g/FlpKSTV1cUlH+8PwF0lH1PNcnbuAFUx1BWAxQn325YsKYukeplFGF3/VMnHPQT4ccnHVDPcRRif1vpZAGHoKwAzgO+XFURS7fyQ8jt/gAuBOzIcV/V3Enb+/zHcSNjlgXuBpUrIIqk+ZgIbEJbZzWEHwu0AR/OrU1cBb8odokpGDfPvMwh/6HuWkEVSfXwOuDzj8R8mzDr6uowZVB9PA3sDU3MHqZJOqudRwO+AnYuNIqkmbgLeALyQOcciwB+BbTLnULXNBd4K/Cp3kKrpZB7lOcDBOG+ypHDP/wDyd/4QMuxFuE0pDeZY7PwH1OlCCo8R7p1MKTCLpGp7jjA3yIO5g8xnMvAW4KHcQVRJJwPfyB2iqrpZSel2wuQJTxaURVJ1TSWMBfpz7iADuB94PeE7SoJw5fpIwlgVDaLbpRRvIvyh3VlAFknV9C/CPf/rcgcZwqOEAYE/yB1E2U0iXBX6bu4gVTfcUwADeQr4EWH98C3xMRypqfqA8wgDqHI97teN2YR7vXcB2+MkZm3TR5gg6r/walAptgWuJ83iHG5ubtXZbqTeS+eOBT5LOGHJ/V66Fb9dSSj61IVUZ+87AYcSzhTKXBlMUjqzgF8DZwFXZ86SyljgIML0wdvjFcsmeQq4CDgXuCVzllpK/cewBKEY2BnYlLDW+LLA0gUcS1LvphCWAr4P+Cdhhb3xwLR8kQq3ImHlwu0JsxiuBSxDmOm02/FQKs8MwvLyjxIe+bwNuBa4mTDYTz36/yLAA85K0n5rAAAAAElFTkSuQmCC;" parent="1" vertex="1">
          <mxGeometry x="420" y="438" width="38" height="38" as="geometry" />
        </mxCell>
        <mxCell id="xdVd4ikQqdaPmy-Qgpou-14" value="MSN Video" style="html=1;verticalLabelPosition=bottom;align=center;labelBackgroundColor=#ffffff;verticalAlign=top;strokeWidth=2;strokeColor=#0080F0;shadow=0;dashed=0;shape=mxgraph.ios7.icons.cube;fontSize=11;" parent="1" vertex="1">
          <mxGeometry x="210" y="508" width="50" height="50" as="geometry" />
        </mxCell>
        <mxCell id="xdVd4ikQqdaPmy-Qgpou-34" value="" style="edgeStyle=orthogonalEdgeStyle;rounded=0;orthogonalLoop=1;jettySize=auto;html=1;strokeColor=#10151C;fontSize=11;strokeWidth=1;" parent="1" source="xdVd4ikQqdaPmy-Qgpou-24" target="xdVd4ikQqdaPmy-Qgpou-30" edge="1">
          <mxGeometry relative="1" as="geometry" />
        </mxCell>
        <mxCell id="xdVd4ikQqdaPmy-Qgpou-24" value="Local Machine" style="shape=image;html=1;verticalAlign=top;verticalLabelPosition=bottom;labelBackgroundColor=#ffffff;imageAspect=0;aspect=fixed;image=https://cdn3.iconfinder.com/data/icons/document-icons-2/30/647702-excel-128.png;fontSize=11;strokeWidth=1;" parent="1" vertex="1">
          <mxGeometry x="516.29" y="162" width="58" height="58" as="geometry" />
        </mxCell>
        <mxCell id="xdVd4ikQqdaPmy-Qgpou-27" value="" style="edgeStyle=orthogonalEdgeStyle;rounded=0;orthogonalLoop=1;jettySize=auto;html=1;strokeColor=#10151C;fontSize=11;strokeWidth=1;" parent="1" source="xdVd4ikQqdaPmy-Qgpou-25" target="xdVd4ikQqdaPmy-Qgpou-24" edge="1">
          <mxGeometry relative="1" as="geometry" />
        </mxCell>
        <mxCell id="xdVd4ikQqdaPmy-Qgpou-37" value="" style="endArrow=classic;startArrow=classic;html=1;rounded=0;strokeColor=#10151C;fontSize=11;" parent="1" source="xdVd4ikQqdaPmy-Qgpou-5" target="xdVd4ikQqdaPmy-Qgpou-2" edge="1">
          <mxGeometry width="50" height="50" relative="1" as="geometry">
            <mxPoint x="580" y="580" as="sourcePoint" />
            <mxPoint x="630" y="530" as="targetPoint" />
          </mxGeometry>
        </mxCell>
        <mxCell id="xdVd4ikQqdaPmy-Qgpou-25" value="Cosmos VC" style="aspect=fixed;html=1;points=[];align=center;image;fontSize=12;image=img/lib/azure2/databases/Azure_Cosmos_DB.svg;strokeWidth=1;" parent="1" vertex="1">
          <mxGeometry x="318.88" y="159" width="64" height="64" as="geometry" />
        </mxCell>
        <mxCell id="xdVd4ikQqdaPmy-Qgpou-30" value="Power BI report" style="shape=image;verticalLabelPosition=bottom;labelBackgroundColor=default;verticalAlign=top;aspect=fixed;imageAspect=0;image=data:image/svg+xml,PHN2ZyB4bWxuczp4bGluaz0iaHR0cDovL3d3dy53My5vcmcvMTk5OS94bGluayIgeG1sbnM9Imh0dHA6Ly93d3cudzMub3JnLzIwMDAvc3ZnIiB2ZXJzaW9uPSIxLjEiIHZpZXdCb3g9IjAgMCA2MzAgNjMwIiBoZWlnaHQ9IjYzMHB4IiB3aWR0aD0iNjMwcHgiPiYjeGE7ICAgICYjeGE7ICAgIDx0aXRsZT5QQkkgTG9nbzwvdGl0bGU+JiN4YTsgICAgPGRlc2M+Q3JlYXRlZCB3aXRoIFNrZXRjaC48L2Rlc2M+JiN4YTsgICAgPGRlZnM+JiN4YTsgICAgICAgIDxsaW5lYXJHcmFkaWVudCBpZD0ibGluZWFyR3JhZGllbnQtMSIgeTI9IjEwMCUiIHgyPSI1MCUiIHkxPSIwJSIgeDE9IjUwJSI+JiN4YTsgICAgICAgICAgICA8c3RvcCBvZmZzZXQ9IjAlIiBzdG9wLWNvbG9yPSIjRUJCQjE0Ii8+JiN4YTsgICAgICAgICAgICA8c3RvcCBvZmZzZXQ9IjEwMCUiIHN0b3AtY29sb3I9IiNCMjU0MDAiLz4mI3hhOyAgICAgICAgPC9saW5lYXJHcmFkaWVudD4mI3hhOyAgICAgICAgPGxpbmVhckdyYWRpZW50IGlkPSJsaW5lYXJHcmFkaWVudC0yIiB5Mj0iMTAwJSIgeDI9IjUwJSIgeTE9IjAlIiB4MT0iNTAlIj4mI3hhOyAgICAgICAgICAgIDxzdG9wIG9mZnNldD0iMCUiIHN0b3AtY29sb3I9IiNGOUU1ODMiLz4mI3hhOyAgICAgICAgICAgIDxzdG9wIG9mZnNldD0iMTAwJSIgc3RvcC1jb2xvcj0iI0RFOTgwMCIvPiYjeGE7ICAgICAgICA8L2xpbmVhckdyYWRpZW50PiYjeGE7ICAgICAgICA8cGF0aCBpZD0icGF0aC0zIiBkPSJNMzQ2LDYwNCBMMzQ2LDYzMCBMMzIwLDYzMCBMMTUzLDYzMCBDMTM4LjY0MDU5Nyw2MzAgMTI3LDYxOC4zNTk0MDMgMTI3LDYwNCBMMTI3LDE4MyBDMTI3LDE2OC42NDA1OTcgMTM4LjY0MDU5NywxNTcgMTUzLDE1NyBMMzIwLDE1NyBDMzM0LjM1OTQwMywxNTcgMzQ2LDE2OC42NDA1OTcgMzQ2LDE4MyBMMzQ2LDYwNCBaIi8+JiN4YTsgICAgICAgIDxmaWx0ZXIgaWQ9ImZpbHRlci00IiBmaWx0ZXJVbml0cz0ib2JqZWN0Qm91bmRpbmdCb3giIGhlaWdodD0iMTE2LjklIiB3aWR0aD0iMTM2LjUlIiB5PSItNi4zJSIgeD0iLTkuMSUiPiYjeGE7ICAgICAgICAgICAgPGZlT2Zmc2V0IHJlc3VsdD0ic2hhZG93T2Zmc2V0T3V0ZXIxIiBpbj0iU291cmNlQWxwaGEiIGR5PSIxMCIgZHg9IjIwIi8+JiN4YTsgICAgICAgICAgICA8ZmVHYXVzc2lhbkJsdXIgcmVzdWx0PSJzaGFkb3dCbHVyT3V0ZXIxIiBpbj0ic2hhZG93T2Zmc2V0T3V0ZXIxIiBzdGREZXZpYXRpb249IjEwIi8+JiN4YTsgICAgICAgICAgICA8ZmVDb2xvck1hdHJpeCBpbj0ic2hhZG93Qmx1ck91dGVyMSIgdHlwZT0ibWF0cml4IiB2YWx1ZXM9IjAgMCAwIDAgMCAgIDAgMCAwIDAgMCAgIDAgMCAwIDAgMCAgMCAwIDAgMC4wNTMwMjExOTc2IDAiLz4mI3hhOyAgICAgICAgPC9maWx0ZXI+JiN4YTsgICAgICAgIDxsaW5lYXJHcmFkaWVudCBpZD0ibGluZWFyR3JhZGllbnQtNSIgeTI9IjEwMCUiIHgyPSI1MCUiIHkxPSIwJSIgeDE9IjUwJSI+JiN4YTsgICAgICAgICAgICA8c3RvcCBvZmZzZXQ9IjAlIiBzdG9wLWNvbG9yPSIjRjlFNjhCIi8+JiN4YTsgICAgICAgICAgICA8c3RvcCBvZmZzZXQ9IjEwMCUiIHN0b3AtY29sb3I9IiNGM0NEMzIiLz4mI3hhOyAgICAgICAgPC9saW5lYXJHcmFkaWVudD4mI3hhOyAgICA8L2RlZnM+JiN4YTsgICAgPGcgZmlsbC1ydWxlPSJldmVub2RkIiBmaWxsPSJub25lIiBzdHJva2Utd2lkdGg9IjEiIHN0cm9rZT0ibm9uZSIgaWQ9IlBCSS1Mb2dvIj4mI3hhOyAgICAgICAgPGcgdHJhbnNmb3JtPSJ0cmFuc2xhdGUoNzcuNTAwMDAwLCAwLjAwMDAwMCkiIGlkPSJHcm91cCI+JiN4YTsgICAgICAgICAgICA8cmVjdCByeD0iMjYiIGhlaWdodD0iNjMwIiB3aWR0aD0iMjE5IiB5PSIwIiB4PSIyNTYiIGZpbGw9InVybCgjbGluZWFyR3JhZGllbnQtMSkiIGlkPSJSZWN0YW5nbGUiLz4mI3hhOyAgICAgICAgICAgIDxnIGlkPSJDb21iaW5lZC1TaGFwZSI+JiN4YTsgICAgICAgICAgICAgICAgPHVzZSB4bGluazpocmVmPSIjcGF0aC0zIiBmaWx0ZXI9InVybCgjZmlsdGVyLTQpIiBmaWxsLW9wYWNpdHk9IjEiIGZpbGw9ImJsYWNrIi8+JiN4YTsgICAgICAgICAgICAgICAgPHVzZSB4bGluazpocmVmPSIjcGF0aC0zIiBmaWxsLXJ1bGU9ImV2ZW5vZGQiIGZpbGw9InVybCgjbGluZWFyR3JhZGllbnQtMikiLz4mI3hhOyAgICAgICAgICAgIDwvZz4mI3hhOyAgICAgICAgICAgIDxwYXRoIGZpbGw9InVybCgjbGluZWFyR3JhZGllbnQtNSkiIGlkPSJDb21iaW5lZC1TaGFwZSIgZD0iTTIxOSw2MDQgTDIxOSw2MzAgTDE5Myw2MzAgTDI2LDYzMCBDMTEuNjQwNTk2NSw2MzAgMS43NTg1MTk3NWUtMTUsNjE4LjM1OTQwMyAwLDYwNCBMMCwzNDEgQy0xLjc1ODUxOTc1ZS0xNSwzMjYuNjQwNTk3IDExLjY0MDU5NjUsMzE1IDI2LDMxNSBMMTkzLDMxNSBDMjA3LjM1OTQwMywzMTUgMjE5LDMyNi42NDA1OTcgMjE5LDM0MSBMMjE5LDYwNCBaIi8+JiN4YTsgICAgICAgIDwvZz4mI3hhOyAgICA8L2c+JiN4YTs8L3N2Zz4=;strokeWidth=1;" parent="1" vertex="1">
          <mxGeometry x="680" y="162" width="60" height="60" as="geometry" />
        </mxCell>
        <mxCell id="xdVd4ikQqdaPmy-Qgpou-40" value="Old workflow" style="text;html=1;strokeColor=none;fillColor=none;align=center;verticalAlign=middle;whiteSpace=wrap;rounded=0;fontSize=22;strokeWidth=1;" parent="1" vertex="1">
          <mxGeometry x="458.68" y="110" width="144" height="30" as="geometry" />
        </mxCell>
        <mxCell id="xdVd4ikQqdaPmy-Qgpou-41" value="New workflow" style="text;html=1;strokeColor=none;fillColor=none;align=center;verticalAlign=middle;whiteSpace=wrap;rounded=0;fontSize=22;" parent="1" vertex="1">
          <mxGeometry x="465.56" y="320" width="144" height="30" as="geometry" />
        </mxCell>
      </root>
    </mxGraphModel>
  </diagram>
</mxfile>
